PathFileType	4	(X/Y/Z)	D:\luciana\static.trc
DataRate	CameraRate	NumFrames	NumMarkers	Units	OrigDataRate	OrigDataStartFrame	OrigNumFrames
250.00	250.00	9	21	mm	250.00	692	922
Frame#	Time	pelvisR			PelvisL			Trunk1			Trunk2			Trunk3			C7			shoulder			upperArm1			upperArm2			upperArm3			elbow			forearm1			forearm2			forearm3			wrist1			wrist2			wrist3			wristOut			wristIn			elbowInt			hand			
		X1	Y1	Z1	X2	Y2	Z2	X3	Y3	Z3	X4	Y4	Z4	X5	Y5	Z5	X6	Y6	Z6	X7	Y7	Z7	X8	Y8	Z8	X9	Y9	Z9	X10	Y10	Z10	X11	Y11	Z11	X12	Y12	Z12	X13	Y13	Z13	X14	Y14	Z14	X15	Y15	Z15	X16	Y16	Z16	X17	Y17	Z17	X18	Y18	Z18	X19	Y19	Z19	X20	Y20	Z20	X21	Y21	Z21	

691	2.764000	1409.908891	637.613297	656.061888	1744.303226	653.401136	650.602102	1516.519904	873.728752	561.691701	1579.649806	820.406735	559.738398	1491.204023	781.045616	561.030626	1581.431270	1132.495403	743.406415	1752.022862	1068.469048	676.115990	1862.274408	932.300091	772.215247	1903.522730	943.151057	708.958030	1851.929903	917.472720	650.194168	1916.398048	798.956156	700.614333	1926.189661	702.602148	715.834856	1935.946226	732.299805	641.276836	1872.016907	766.793489	624.944985	1836.130500	674.067974	543.095350	1868.972063	614.450693	584.303558	1775.025487	693.678141	579.663515	1822.872043	603.454828	562.341213	1767.580748	646.341443	562.730968	1858.372331	763.974607	764.956713	1791.508079	610.515773	502.425671	
692	2.768000	1409.906983	637.604475	656.087518	1744.303584	653.398752	650.602937	1516.533017	873.737872	561.689675	1579.648376	820.384860	559.748650	1491.210103	781.031311	561.022103	1581.434369	1132.496595	743.398547	1752.030492	1068.463802	676.120102	1862.277389	932.287991	772.217810	1903.522730	943.147004	708.957076	1851.923108	917.461514	650.182605	1916.395426	798.944831	700.610518	1926.178455	702.596068	715.826988	1935.931921	732.289910	641.269624	1872.012138	766.792834	624.931395	1836.125851	674.059987	543.087363	1868.973732	614.443779	584.313571	1775.019646	693.673730	579.654396	1822.866440	603.460908	562.339246	1767.581820	646.328628	562.725365	1858.370304	763.973832	764.951169	1791.517258	610.506892	502.402782	
693	2.772000	1409.924984	637.583971	656.097233	1744.296193	653.390348	650.589347	1516.548038	873.723984	561.672688	1579.648614	820.367575	559.747815	1491.213799	781.012952	561.018646	1581.422567	1132.476449	743.398190	1752.042055	1068.456292	676.120996	1862.275004	932.283282	772.205591	1903.520226	943.138897	708.954930	1851.919889	917.454123	650.180042	1916.398168	798.946977	700.610280	1926.219702	702.610135	715.822577	1935.938954	732.298911	641.273856	1872.004271	766.793966	624.928951	1836.124063	674.055159	543.084025	1868.956685	614.451408	584.303141	1775.015235	693.667710	579.653025	1822.861433	603.468418	562.333047	1767.588377	646.349013	562.709510	1858.381510	763.992906	764.971137	1791.521072	610.505581	502.386451	
694	2.776000	1409.915686	637.592077	656.081855	1744.296670	653.402328	650.595248	1516.526699	873.685956	561.650634	1579.652071	820.355654	559.745908	1491.216421	781.005502	561.009645	1581.420541	1132.467628	743.391037	1752.033353	1068.447828	676.114500	1862.269402	932.285309	772.186995	1903.514147	943.139195	708.947778	1851.921678	917.448521	650.197089	1916.396141	798.947096	700.607419	1926.227212	702.615023	715.818286	1935.946226	732.301533	641.275525	1872.006178	766.797006	624.926984	1836.120367	674.051464	543.077290	1868.948221	614.447892	584.282577	1775.024176	693.668544	579.652905	1822.854042	603.471398	562.339067	1767.589927	646.348178	562.670112	1858.374119	763.997436	764.959574	1791.517377	610.526800	502.379954	
695	2.780000	1409.900427	637.602329	656.075120	1744.292498	653.388798	650.587261	1516.474485	873.647392	561.636567	1579.642296	820.347428	559.740245	1491.213441	780.997276	560.982704	1581.408739	1132.455230	743.382812	1752.030373	1068.444490	676.106393	1862.269163	932.284415	772.182524	1903.516769	943.134367	708.945274	1851.916671	917.443037	650.188327	1916.396379	798.949480	700.613916	1926.197529	702.604532	715.815663	1935.953617	732.300639	641.276121	1872.008801	766.788125	624.934494	1836.110115	674.044371	543.079019	1868.928194	614.420772	584.265351	1775.039196	693.679094	579.650879	1822.847247	603.459537	562.324822	1767.581820	646.343648	562.653899	1858.361483	763.966143	764.928460	1791.518211	610.531092	502.387762	
696	2.784000	1409.890771	637.596726	656.084418	1744.289875	653.396487	650.592029	1516.495109	873.665631	561.591744	1579.639673	820.332885	559.734106	1491.228342	780.991077	560.978770	1581.418037	1132.455111	743.373930	1752.032876	1068.441629	676.102757	1862.272263	932.282150	772.186518	1903.523803	943.134189	708.946288	1851.918340	917.438507	650.180101	1916.397810	798.942447	700.602651	1926.153898	702.571034	715.812683	1935.948610	732.293725	641.276002	1871.996403	766.789436	624.932408	1836.104989	674.040496	543.070793	1868.911743	614.425600	584.269166	1775.032401	693.677068	579.639912	1822.839856	603.486538	562.338352	1767.580867	646.366298	562.659264	1858.363986	763.962388	764.936805	1791.517138	610.534549	502.382457	
697	2.788000	1409.904480	637.595892	656.080365	1744.284153	653.401017	650.591075	1516.457081	873.644650	561.576724	1579.637051	820.327759	559.724331	1491.214514	780.978441	560.982823	1581.426978	1132.449865	743.361592	1752.038360	1068.433881	676.105022	1862.271547	932.279050	772.191167	1903.522611	943.129599	708.937228	1851.919293	917.437017	650.174022	1916.399360	798.933625	700.597048	1926.153421	702.565670	715.820551	1935.934544	732.280493	641.269088	1872.009158	766.790271	624.932110	1836.109877	674.041867	543.059111	1868.914843	614.423513	584.257662	1775.026917	693.682492	579.642117	1822.852373	603.483737	562.343419	1767.582178	646.345317	562.695265	1858.377695	763.978243	764.950573	1791.509986	610.538423	502.373576	
698	2.792000	1409.902573	637.586296	656.073570	1744.277239	653.392673	650.586545	1516.427517	873.621404	561.567545	1579.633474	820.335567	559.713900	1491.197228	780.997157	560.980439	1581.411362	1132.448435	743.356764	1752.049446	1068.427086	676.103473	1862.272143	932.275355	772.186339	1903.521895	943.130374	708.942175	1851.927519	917.433143	650.171459	1916.405201	798.928261	700.598240	1926.174164	702.575147	715.825081	1935.935020	732.283175	641.275167	1872.024417	766.784191	624.937654	1836.113453	674.053669	543.058515	1868.913651	614.412308	584.268034	1775.027275	693.687320	579.638541	1822.850704	603.477120	562.329173	1767.580271	646.348715	562.710345	1858.377457	763.969004	764.941633	1791.513085	610.540628	502.382040	
699	2.796000	1409.912586	637.575269	656.058073	1744.282246	653.400064	650.582612	1516.508579	873.649180	561.533809	1579.627633	820.339561	559.704304	1491.191626	780.988634	560.974896	1581.421137	1132.448912	743.358850	1752.052069	1068.414927	676.094651	1862.271070	932.268023	772.185206	1903.525472	943.128049	708.947897	1851.928949	917.416155	650.181293	1916.404724	798.914313	700.598419	1926.198840	702.582717	715.826631	1935.946584	732.283473	641.287327	1872.028112	766.775966	624.944210	1836.112261	674.060047	543.063402	1868.922472	614.417672	584.270120	1775.028944	693.682849	579.643846	1822.841167	603.478968	562.338173	1767.580271	646.378636	562.688947	1858.373761	763.946891	764.920712	1791.515231	610.551775	502.385914	
